<?xml version="1.0" standalone="no"?>
<!DOCTYPE svg PUBLIC "-//W3C//DTD SVG 20010904//EN"
 "http://www.w3.org/TR/2001/REC-SVG-20010904/DTD/svg10.dtd">
<svg version="1.0" xmlns="http://www.w3.org/2000/svg"
 width="700.000000pt" height="700.000000pt" viewBox="0 0 700.000000 700.000000"
 preserveAspectRatio="xMidYMid meet">
<metadata>
Created by potrace 1.11, written by Peter Selinger 2001-2013
</metadata>
<g transform="translate(0.000000,700.000000) scale(0.100000,-0.100000)"
fill="#000000" stroke="none">
<path d="M290 6125 l0 -291 278 0 c152 1 284 0 293 -2 15 -3 56 -83 167 -322
22 -47 70 -148 107 -225 37 -77 84 -176 105 -220 70 -149 127 -269 220 -465
51 -107 111 -235 135 -285 51 -109 112 -236 195 -410 145 -304 139 -287 117
-320 -8 -11 -33 -55 -56 -99 -23 -43 -77 -140 -118 -215 -42 -75 -92 -165
-111 -201 -20 -36 -55 -101 -80 -145 -57 -103 -83 -205 -81 -310 4 -160 59
-287 175 -402 81 -81 181 -135 286 -157 50 -10 429 -13 1841 -13 l1777 0 0 66
c1 91 1 427 1 476 l-1 40 -1685 0 c-927 0 -1699 4 -1715 8 -39 10 -55 47 -40
91 6 17 35 74 64 126 29 52 69 124 89 160 19 36 48 88 64 115 16 28 32 58 36
68 6 16 70 17 1134 18 620 0 1138 2 1151 5 109 20 233 87 311 167 65 67 60 60
274 447 16 30 61 111 99 179 38 68 74 133 79 145 5 11 15 30 22 41 7 11 32 56
56 100 503 911 620 1124 627 1145 21 66 24 112 8 172 -24 95 -97 174 -188 204
-47 16 -204 18 -2229 18 l-2178 1 -45 95 c-25 52 -55 115 -66 140 -11 25 -46
99 -77 165 -32 66 -63 134 -71 151 l-14 31 -478 0 -478 0 0 -292z"/>
<path d="M1930 1740 c-227 -48 -409 -229 -457 -454 -8 -40 -9 -192 -1 -231 52
-259 279 -456 538 -469 170 -8 320 51 442 174 180 182 221 426 112 660 -19 41
-38 77 -42 80 -4 3 -24 26 -44 51 -50 62 -157 134 -247 165 -83 29 -224 40
-301 24z"/>
<path d="M4844 1739 c-142 -26 -287 -126 -373 -258 -54 -84 -82 -175 -88 -286
-10 -172 44 -312 167 -436 201 -202 492 -232 729 -75 92 61 153 132 201 231
48 101 60 156 56 275 -10 355 -335 613 -692 549z"/>
</g>
</svg>
